HIERARCHY
ROOT Hips
{
 OFFSET 0.000000 0.000000 0.000000
 CHANNELS 6 Xposition Yposition Zposition Yrotation Xrotation Zrotation
 JOINT Chest
 {
  OFFSET 0.000000 9.581000 -0.001100
  CHANNELS 3 Yrotation Xrotation Zrotation
  JOINT Chest2
  {
   OFFSET 0.000000 9.561100 0.002200
   CHANNELS 3 Yrotation Xrotation Zrotation
   JOINT Chest3
   {
    OFFSET 0.000000 9.521100 0.000000
    CHANNELS 3 Yrotation Xrotation Zrotation
    JOINT Chest4
    {
     OFFSET 0.000000 9.511400 0.000000
     CHANNELS 3 Yrotation Xrotation Zrotation
     JOINT Neck
     {
      OFFSET 0.000000 14.375100 0.000000
      CHANNELS 3 Yrotation Xrotation Zrotation
      JOINT Head
      {
       OFFSET 0.000000 8.901200 0.004600
       CHANNELS 3 Yrotation Xrotation Zrotation
       End Site
       {
        OFFSET 0.000000 16.962200 0.002400
       }
      }
     }
     JOINT RightCollar
     {
      OFFSET -2.920100 9.518800 0.000000
      CHANNELS 3 Yrotation Xrotation Zrotation
      JOINT RightShoulder
      {
       OFFSET -13.664500 0.000000 0.000000
       CHANNELS 3 Yrotation Xrotation Zrotation
       JOINT RightElbow
       {
        OFFSET 0.000000 -29.999200 0.000000
        CHANNELS 3 Yrotation Xrotation Zrotation
        JOINT RightWrist
        {
         OFFSET 0.000000 -24.253600 0.000000
         CHANNELS 3 Yrotation Xrotation Zrotation
         End Site
         {
          OFFSET 0.000000 -17.918900 0.000000
         }
        }
       }
      }
     }
     JOINT LeftCollar
     {
      OFFSET 2.920100 9.518800 0.000000
      CHANNELS 3 Yrotation Xrotation Zrotation
      JOINT LeftShoulder
      {
       OFFSET 13.664500 0.000000 0.000000
       CHANNELS 3 Yrotation Xrotation Zrotation
       JOINT LeftElbow
       {
        OFFSET 0.000000 -29.999200 0.000000
        CHANNELS 3 Yrotation Xrotation Zrotation
        JOINT LeftWrist
        {
         OFFSET 0.000000 -24.253600 0.000000
         CHANNELS 3 Yrotation Xrotation Zrotation
         End Site
         {
          OFFSET 0.000000 -17.918900 0.000000
         }
        }
       }
      }
     }
    }
   }
  }
 }
 JOINT RightHip
 {
  OFFSET -7.797300 0.005300 0.000500
  CHANNELS 3 Yrotation Xrotation Zrotation
  JOINT RightKnee
  {
   OFFSET 0.000000 -40.663400 -0.000500
   CHANNELS 3 Yrotation Xrotation Zrotation
   JOINT RightAnkle
   {
    OFFSET 0.000000 -39.523700 -0.000900
    CHANNELS 3 Yrotation Xrotation Zrotation
    JOINT RightToe
    {
     OFFSET 0.000000 -6.418000 14.485300
     CHANNELS 3 Yrotation Xrotation Zrotation
     End Site
     {
      OFFSET 0.000000 -1.465200 6.326400
     }
    }
   }
  }
 }
 JOINT LeftHip
 {
  OFFSET 7.797300 0.005300 0.000500
  CHANNELS 3 Yrotation Xrotation Zrotation
  JOINT LeftKnee
  {
   OFFSET 0.000000 -40.663400 -0.000500
   CHANNELS 3 Yrotation Xrotation Zrotation
   JOINT LeftAnkle
   {
    OFFSET 0.000000 -39.523700 -0.000900
    CHANNELS 3 Yrotation Xrotation Zrotation
    JOINT LeftToe
    {
     OFFSET 0.000000 -6.418000 14.485300
     CHANNELS 3 Yrotation Xrotation Zrotation
     End Site
     {
      OFFSET 0.000000 -1.465200 6.326400
     }
    }
   }
  }
 }
}
MOTION
Frames: 16
Frame Time: 0.008333
0.000000 86.422400 0.000000 0.000000 -5.767877 0.000000 0.000000 11.653817 0.000000 0.000000 -5.885947 0.000000 0.000000 -0.000000 0.000000 0.000000 -0.000000 0.000000 0.000000 12.528835 0.000000 0.000000 0.711642 0.000000 0.000000 -0.000000 0.000000 0.000000 0.000000 -90.000000 0.000000 -2.309062 0.000000 0.000000 2.309062 0.000000 0.000000 -0.000000 0.000000 0.000000 -0.000000 90.000000 0.000000 -2.309062 0.000000 0.000000 2.309062 0.000000 0.000000 8.520406 0.000000 0.000000 1.905762 0.000000 -0.000000 -4.658285 0.000000 0.000000 -0.000000 0.000000 0.000000 8.520406 0.000000 0.000000 1.905762 0.000000 -0.000000 -4.658285 0.000000 0.000000 -0.000000 0.000000
-2.375068 126.256698 22.475083 -166.711348 -24.574884 -1.691592 -4.584172 19.567602 0.873111 -0.644972 2.430972 0.192873 -0.969055 4.039259 0.333164 -3.956277 16.930575 0.963156 -0.718804 18.567340 -1.413029 -0.379759 -6.110056 -1.347754 -4.734697 -2.316834 -1.555212 -5.357584 -4.087920 -5.625381 -86.187700 -28.584338 110.040185 -14.284883 13.258011 15.882324 -3.886030 -2.817326 1.428380 2.687978 -7.821068 8.171374 170.857277 -76.833948 173.892770 -18.089432 -15.584007 24.533946 -2.441767 -61.337569 0.562046 -45.462853 73.238165 -48.961158 21.864633 19.953872 14.370403 -0.151379 -0.196639 -0.066873 -4.183448 -52.009494 -5.686474 88.282176 78.660817 80.868207 -17.432389 -10.548139 -5.371010 -0.017676 0.039890 -0.007838
-2.392026 126.258050 22.475663 -166.652329 -24.584605 -1.624482 -4.619338 19.594338 0.803249 -0.598399 2.464677 0.211207 -0.977210 4.042620 0.332990 -4.033912 16.884556 0.951928 -0.766762 18.527514 -1.411678 -0.406500 -6.125431 -1.339499 -4.711989 -2.295132 -1.571938 -5.365032 -4.105907 -5.612936 -86.199670 -28.564842 110.017560 -14.326054 13.223720 15.833276 -3.880619 -2.819144 1.418093 2.750472 -7.791243 8.166970 170.809021 -76.787112 173.889235 -18.076221 -15.560495 24.594239 -2.466349 -61.432004 0.394747 -45.197561 73.330243 -48.905613 22.019500 20.188489 14.684832 -0.303800 -0.186132 -0.134235 -4.086549 -51.987023 -5.856438 88.134295 78.613793 80.748387 -17.504538 -10.544658 -5.438726 0.002140 0.034979 0.000946
-2.403311 126.260914 22.472488 -166.543920 -24.614132 -1.616799 -4.688696 19.634283 0.761611 -0.597993 2.465676 0.210764 -0.988103 4.042455 0.334921 -4.051125 16.885264 0.953800 -0.798123 18.484357 -1.409939 -0.549265 -6.237283 -1.276536 -4.691141 -2.272915 -1.581721 -5.382558 -4.115831 -5.597462 -86.205810 -28.544536 109.997423 -14.366978 13.176816 15.787168 -3.861323 -2.786182 1.403725 2.769629 -7.789582 8.174699 170.786446 -76.739656 173.888312 -18.070233 -15.543280 24.653964 -2.326667 -61.502344 0.123627 -44.876905 73.539648 -48.692317 21.936914 20.386611 14.945917 -0.325742 -0.116222 -0.144081 -4.063566 -51.941890 -5.987756 87.950506 78.439640 80.608280 -17.695561 -10.512475 -5.513906 0.021979 0.026687 0.009738
-2.401279 126.264838 22.465217 -166.462450 -24.657979 -1.681739 -4.728512 19.685954 0.796236 -0.597262 2.466250 0.210591 -0.998429 4.041688 0.337298 -3.951092 16.912702 0.930521 -0.884153 18.423510 -1.356684 -0.603647 -6.269539 -1.242855 -4.761756 -2.270518 -1.536253 -5.414099 -4.130574 -5.581888 -86.191766 -28.516040 109.960774 -14.404095 13.117351 15.752153 -3.938898 -2.765794 1.447542 2.774423 -7.785751 8.178446 170.725782 -76.729516 174.011354 -18.075626 -15.591564 24.644078 -2.048111 -61.559274 -0.154157 -44.631836 73.770216 -48.418078 21.753577 20.636447 15.133145 -0.230347 -0.037975 -0.102002 -4.115489 -51.881000 -5.992423 87.832960 78.362391 80.526738 -17.724185 -10.513355 -5.601865 0.019024 0.011732 0.008428
-2.388224 126.266515 22.461483 -166.428443 -24.671210 -1.786987 -4.705606 19.708844 0.894492 -0.595947 2.466928 0.210468 -0.973218 4.046327 0.331728 -3.939647 16.919491 0.936896 -0.907898 18.387768 -1.341233 -0.665640 -6.337413 -1.199239 -4.793364 -2.269105 -1.517671 -5.427201 -4.128819 -5.573964 -86.196758 -28.503516 109.956367 -14.476285 13.054662 15.706000 -3.964789 -2.739909 1.465164 2.761650 -7.797589 8.179211 170.736467 -76.715031 174.017863 -18.079832 -15.586270 24.682666 -1.659392 -61.649274 -0.436154 -44.659976 73.893464 -48.293124 21.616650 21.009035 15.285469 -0.085403 0.012300 -0.037847 -4.205044 -51.852837 -5.895854 87.762069 78.311596 80.486295 -17.729631 -10.516538 -5.649108 0.000104 0.005579 0.000046
-2.375806 126.265877 22.463325 -166.431608 -24.656562 -1.866697 -4.605330 19.718317 0.971239 -0.591993 2.466547 0.216782 -0.989854 4.039564 0.349271 -3.963138 16.914302 0.952304 -0.889596 18.371309 -1.343979 -0.717198 -6.389940 -1.161079 -4.788711 -2.262029 -1.514813 -5.411637 -4.070313 -5.565387 -86.265416 -28.496156 110.010010 -14.554000 12.989874 15.678776 -3.961435 -2.717004 1.470029 2.746350 -7.800231 8.177837 170.803313 -76.726330 174.019084 -18.072478 -15.605984 24.679706 -1.148586 -61.768643 -0.802051 -45.008582 73.855527 -48.400415 21.713127 21.515796 15.492844 -0.001006 0.019616 -0.000446 -4.247790 -51.856459 -5.809515 87.700954 78.238261 80.446064 -17.812757 -10.502087 -5.651264 -0.012690 0.000225 -0.005622
-2.363850 126.265630 22.464723 -166.458130 -24.650147 -1.936837 -4.527578 19.733630 1.047590 -0.605626 2.453499 0.230477 -0.954667 4.052963 0.334701 -3.855844 16.964898 0.964512 -0.961594 18.305442 -1.294463 -0.764102 -6.404596 -1.134177 -4.885499 -2.304125 -1.460533 -5.421099 -4.033028 -5.560096 -86.302681 -28.414074 110.029607 -14.557607 12.940324 15.684369 -4.092092 -2.772017 1.528647 2.740897 -7.734487 8.173718 170.944137 -76.682160 173.942960 -18.057700 -15.629830 24.660208 -0.639282 -61.876987 -1.156334 -45.607428 73.673276 -48.712771 21.949942 22.108519 15.728729 0.052070 0.040350 0.023085 -4.255344 -51.850886 -5.727375 87.642147 78.167831 80.377020 -17.826643 -10.469332 -5.597834 -0.043520 -0.014419 -0.019278
-2.352952 126.265284 22.466811 -166.487765 -24.642667 -2.001432 -4.457655 19.746438 1.123350 -0.590577 2.458483 0.224121 -0.944076 4.059613 0.337792 -3.790422 17.012473 0.991454 -0.988659 18.244762 -1.274602 -0.800790 -6.464488 -1.108671 -4.888284 -2.345573 -1.435251 -5.480886 -4.014474 -5.558898 -86.349115 -28.387679 110.066975 -14.615126 12.890884 15.696639 -4.151273 -2.806104 1.557882 2.721718 -7.745039 8.170962 170.967368 -76.657917 173.926175 -18.061616 -15.616826 24.672893 -0.216029 -61.981882 -1.437667 -46.299494 73.400893 -49.130240 22.273525 22.797931 16.008667 0.081830 0.047300 0.036284 -4.234674 -51.842564 -5.668708 87.550466 78.169861 80.305986 -17.810806 -10.452799 -5.535652 -0.043383 -0.019142 -0.019217
-2.345486 126.265410 22.468643 -166.511281 -24.641119 -2.052290 -4.409949 19.754426 1.186006 -0.553574 2.509072 0.211394 -0.952658 4.042911 0.348522 -3.746479 17.049524 1.016065 -0.986703 18.189955 -1.268622 -0.768914 -6.556322 -1.108165 -4.904063 -2.401516 -1.423673 -5.497494 -3.988885 -5.556305 -86.375554 -28.267627 110.076352 -14.546815 12.877366 15.730621 -4.126057 -2.820875 1.560050 2.667461 -7.782346 8.178103 171.053384 -76.658753 173.869239 -18.056730 -15.608648 24.663537 0.076105 -62.076095 -1.615974 -46.893296 73.081367 -49.513350 22.673508 23.561939 16.341867 0.102341 0.054331 0.045384 -4.178391 -51.823750 -5.654498 87.425925 78.186375 80.211407 -17.801638 -10.431602 -5.397938 -0.034057 -0.011132 -0.015088
-2.330157 126.265467 22.469563 -166.547334 -24.632251 -2.148497 -4.309406 19.779802 1.303518 -0.554017 2.524938 0.214938 -0.939308 4.049546 0.352842 -3.725559 17.078031 1.038538 -0.969077 18.132873 -1.268792 -0.733041 -6.629267 -1.116980 -4.907070 -2.451972 -1.415146 -5.504822 -3.976873 -5.552718 -86.416829 -28.185741 110.090188 -14.521643 12.864035 15.780976 -4.119416 -2.871922 1.558130 2.668117 -7.784586 8.189338 171.176958 -76.683664 173.786568 -18.032583 -15.634782 24.620764 0.068213 -62.174445 -1.506647 -47.296330 72.734080 -49.801962 23.153012 24.382356 16.705240 0.143299 0.066794 0.063563 -4.195971 -51.809859 -5.546066 87.316551 78.194854 80.137714 -17.788875 -10.426044 -5.312986 -0.030943 0.001737 -0.013713
-2.321973 126.266112 22.470080 -166.585238 -24.632556 -2.206500 -4.229602 19.825434 1.376317 -0.564357 2.499624 0.224921 -0.923641 4.084576 0.354164 -3.712571 17.094582 1.054110 -0.933559 18.074584 -1.274300 -0.694133 -6.693658 -1.130455 -4.897501 -2.482122 -1.407897 -5.522178 -3.995932 -5.551399 -86.431291 -28.128818 110.089815 -14.528919 12.847562 15.836655 -4.118390 -2.926381 1.556236 2.714306 -7.770237 8.198796 171.204838 -76.691886 173.752505 -18.048664 -15.592229 24.614253 -0.122907 -62.257746 -1.279746 -47.488689 72.377898 -49.993523 23.776011 25.236647 17.143973 0.149403 0.058566 0.066264 -4.223555 -51.799129 -5.454001 87.278435 78.202153 80.098355 -17.789880 -10.410652 -5.234485 -0.013238 0.000719 -0.005867
-2.325858 126.266581 22.472063 -166.614297 -24.635370 -2.199279 -4.199663 19.832458 1.380317 -0.571076 2.525961 0.221057 -0.916862 4.127032 0.356115 -3.700261 17.051230 1.066985 -0.911185 18.044995 -1.278240 -0.603828 -6.771606 -1.166123 -4.877745 -2.467628 -1.400178 -5.527947 -4.024474 -5.554662 -86.454872 -28.104466 110.096427 -14.525144 12.844344 15.857173 -4.095422 -2.942338 1.550195 2.777166 -7.750938 8.210015 171.116382 -76.663597 173.779821 -18.062263 -15.543061 24.628090 -0.426873 -62.328590 -1.031808 -47.486365 72.047263 -50.094841 24.409313 26.065903 17.628292 0.118953 0.051879 0.052756 -3.981925 -51.761415 -5.633853 87.037175 78.181174 79.933505 -17.757663 -10.396835 -5.101303 -0.037100 0.018994 -0.016445
-2.330991 126.267513 22.472013 -166.649059 -24.647359 -2.188048 -4.176064 19.861969 1.373758 -0.582679 2.534421 0.221520 -0.914730 4.129542 0.359177 -3.676155 17.047882 1.073239 -0.883972 18.014587 -1.283713 -0.497305 -6.866071 -1.206944 -4.868705 -2.470057 -1.396025 -5.491901 -4.023616 -5.560678 -86.506706 -28.082955 110.110397 -14.518697 12.843178 15.876307 -4.020533 -2.895665 1.527785 2.804172 -7.779346 8.231345 171.079947 -76.658521 173.788273 -18.047790 -15.562031 24.624244 -0.863079 -62.377984 -0.704999 -47.324032 71.785824 -50.096952 25.002175 26.812094 18.135806 0.047012 0.053634 0.020854 -3.812617 -51.732840 -5.762029 86.928739 78.138385 79.889392 -17.768909 -10.383095 -5.045126 -0.037552 0.016159 -0.016645
-2.342869 126.268941 22.470038 -166.648933 -24.673695 -2.156418 -4.233468 19.915695 1.309439 -0.549851 2.515324 0.232237 -0.927613 4.146693 0.356846 -3.669507 17.065722 1.081664 -0.763534 17.922491 -1.302180 -0.451420 -6.922797 -1.219878 -4.838209 -2.491056 -1.396076 -5.458818 -4.034251 -5.570401 -86.549690 -28.065225 110.109132 -14.505536 12.818896 15.877934 -3.975454 -2.880229 1.508581 2.878929 -7.778745 8.245803 171.042095 -76.643911 173.806898 -18.031468 -15.585377 24.637267 -1.255578 -62.405930 -0.500608 -47.047976 71.639386 -49.987099 25.505721 27.449616 18.629788 -0.035073 0.068132 -0.015551 -3.676175 -51.700416 -5.915622 86.886485 78.081496 79.889131 -17.797344 -10.365343 -5.019045 -0.039466 0.005310 -0.017490
-2.363008 126.270636 22.466488 -166.624820 -24.714506 -2.088863 -4.304715 19.967914 1.206125 -0.542113 2.508268 0.239419 -0.936607 4.164355 0.352341 -3.673784 17.078951 1.089746 -0.658793 17.856094 -1.317825 -0.372442 -6.975890 -1.244312 -4.795661 -2.489362 -1.387259 -5.434844 -4.066701 -5.588636 -86.592441 -28.061370 110.115636 -14.499105 12.811805 15.867816 -3.954440 -2.873604 1.499151 2.970414 -7.749126 8.252844 170.983564 -76.582183 173.823951 -18.023375 -15.558780 24.692382 -1.434070 -62.421269 -0.553610 -46.685461 71.625112 -49.737788 25.862420 28.019327 19.075128 -0.087429 0.068944 -0.038777 -3.516227 -51.661077 -6.140226 86.881976 78.011789 79.925803 -17.851378 -10.349009 -4.989252 -0.024032 -0.010098 -0.010647
